<?xml version="1.0" encoding="UTF-8" standalone="no"?>
<svg
   xmlns:dc="http://purl.org/dc/elements/1.1/"
   xmlns:cc="http://creativecommons.org/ns#"
   xmlns:rdf="http://www.w3.org/1999/02/22-rdf-syntax-ns#"
   xmlns:svg="http://www.w3.org/2000/svg"
   xmlns="http://www.w3.org/2000/svg"
   xmlns:sodipodi="http://sodipodi.sourceforge.net/DTD/sodipodi-0.dtd"
   xmlns:inkscape="http://www.inkscape.org/namespaces/inkscape"
   sodipodi:docname="fbook.svg"
   inkscape:version="1.0 (5b275a35d9, 2020-05-03)"
   id="svg8"
   version="1.1"
   viewBox="0 0 5.2255306 11.575561"
   height="11.575561mm"
   width="5.2255306mm">
  <defs
     id="defs2" />
  <sodipodi:namedview
     inkscape:window-maximized="1"
     inkscape:window-y="27"
     inkscape:window-x="0"
     inkscape:window-height="704"
     inkscape:window-width="1366"
     fit-margin-bottom="0"
     fit-margin-right="0"
     fit-margin-left="0"
     fit-margin-top="0"
     showgrid="false"
     inkscape:document-rotation="0"
     inkscape:current-layer="layer1"
     inkscape:document-units="mm"
     inkscape:cy="23.433146"
     inkscape:cx="4.8682457"
     inkscape:zoom="11.2"
     inkscape:pageshadow="2"
     inkscape:pageopacity="0.0"
     borderopacity="1.0"
     bordercolor="#666666"
     pagecolor="#ffffff"
     id="base" />
  <metadata
     id="metadata5">
    <rdf:RDF>
      <cc:Work
         rdf:about="">
        <dc:format>image/svg+xml</dc:format>
        <dc:type
           rdf:resource="http://purl.org/dc/dcmitype/StillImage" />
        <dc:title></dc:title>
      </cc:Work>
    </rdf:RDF>
  </metadata>
  <g
     transform="translate(-104.99988,-143.95725)"
     id="layer1"
     inkscape:groupmode="layer"
     inkscape:label="Layer 1">
    <g
       id="g983">
      <g
         style="mix-blend-mode:normal;fill:none;fill-opacity:1;stroke:#f6f6f6;stroke-opacity:1"
         id="g890"
         transform="matrix(0.26458333,0,0,0.26458333,104.96681,143.92418)">
        <path
           id="path879"
           stroke-miterlimit="10"
           stroke="#ff0e0e"
           d="M 17.6172,0.625 H 2.38281 C 1.91704,0.626401 1.47075,0.812049 1.1414,1.1414 0.812049,1.47075 0.626401,1.91704 0.625,2.38281 V 17.6172 c 0.001401,0.4658 0.187049,0.9121 0.5164,1.2414 0.32935,0.3294 0.77564,0.515 1.24141,0.5164 H 10.5859 V 11.7578 H 8.535 V 8.82812 h 2.0509 V 7.36344 c 0.0475,-1.6425 0.4725,-3.10375 3.2575,-3.2225 h 2.3091 V 7.045 H 14.2003 C 14.0761,7.03756 13.9517,7.05533 13.8345,7.09723 13.7173,7.13912 13.6098,7.20429 13.5185,7.2888 13.4271,7.37331 13.3538,7.47543 13.3029,7.589 13.2521,7.70258 13.2247,7.82526 13.2225,7.94969 v 0.87843 h 2.9297 l -0.5,2.92968 h -2.4297 v 7.6172 h 4.3947 c 0.4658,-0.0014 0.9121,-0.187 1.2414,-0.5164 0.3294,-0.3293 0.515,-0.7756 0.5164,-1.2414 V 2.38281 C 19.3736,1.91704 19.188,1.47075 18.8586,1.1414 18.5293,0.812049 18.083,0.626401 17.6172,0.625 Z"
           style="fill:none;fill-opacity:1;stroke:#f6f6f6;stroke-opacity:1" />
      </g>
      <g
         style="mix-blend-mode:normal;fill:none"
         id="g961"
         transform="matrix(0.26458333,0,0,0.26458333,104.96682,150.27422)">
        <path
           id="path950"
           stroke-miterlimit="10"
           stroke="#ff0e0e"
           d="M 17.6172,0.625 H 2.38281 C 1.91704,0.626401 1.47075,0.812049 1.1414,1.1414 0.812049,1.47075 0.626401,1.91704 0.625,2.38281 V 17.6172 c 0.001401,0.4658 0.187049,0.9121 0.5164,1.2414 0.32935,0.3294 0.77564,0.515 1.24141,0.5164 H 10.5859 V 11.7578 H 8.535 V 8.82812 h 2.0509 V 7.36344 c 0.0475,-1.6425 0.4725,-3.10375 3.2575,-3.2225 h 2.3091 V 7.045 H 14.2003 C 14.0761,7.03756 13.9517,7.05533 13.8345,7.09723 13.7173,7.13912 13.6098,7.20429 13.5185,7.2888 13.4271,7.37331 13.3538,7.47543 13.3029,7.589 13.2521,7.70258 13.2247,7.82526 13.2225,7.94969 v 0.87843 h 2.9297 l -0.5,2.92968 h -2.4297 v 7.6172 h 4.3947 c 0.4658,-0.0014 0.9121,-0.187 1.2414,-0.5164 0.3294,-0.3293 0.515,-0.7756 0.5164,-1.2414 V 2.38281 C 19.3736,1.91704 19.188,1.47075 18.8586,1.1414 18.5293,0.812049 18.083,0.626401 17.6172,0.625 Z" />
      </g>
    </g>
  </g>
</svg>
