<?xml version="1.0" encoding="UTF-8" standalone="no"?>
<svg
   xmlns:dc="http://purl.org/dc/elements/1.1/"
   xmlns:cc="http://creativecommons.org/ns#"
   xmlns:rdf="http://www.w3.org/1999/02/22-rdf-syntax-ns#"
   xmlns:svg="http://www.w3.org/2000/svg"
   xmlns="http://www.w3.org/2000/svg"
   xmlns:sodipodi="http://sodipodi.sourceforge.net/DTD/sodipodi-0.dtd"
   xmlns:inkscape="http://www.inkscape.org/namespaces/inkscape"
   sodipodi:docname="insta.svg"
   inkscape:version="1.0 (5b275a35d9, 2020-05-03)"
   id="svg8"
   version="1.1"
   viewBox="0 0 5.2255206 11.564699"
   height="11.564699mm"
   width="5.2255206mm">
  <defs
     id="defs2" />
  <sodipodi:namedview
     inkscape:window-maximized="1"
     inkscape:window-y="27"
     inkscape:window-x="0"
     inkscape:window-height="704"
     inkscape:window-width="1366"
     fit-margin-bottom="0"
     fit-margin-right="0"
     fit-margin-left="0"
     fit-margin-top="0"
     showgrid="false"
     inkscape:document-rotation="0"
     inkscape:current-layer="layer1"
     inkscape:document-units="mm"
     inkscape:cy="26.815331"
     inkscape:cx="8.9505585"
     inkscape:zoom="7.9195959"
     inkscape:pageshadow="2"
     inkscape:pageopacity="0.0"
     borderopacity="1.0"
     bordercolor="#666666"
     pagecolor="#ffffff"
     id="base" />
  <metadata
     id="metadata5">
    <rdf:RDF>
      <cc:Work
         rdf:about="">
        <dc:format>image/svg+xml</dc:format>
        <dc:type
           rdf:resource="http://purl.org/dc/dcmitype/StillImage" />
        <dc:title></dc:title>
      </cc:Work>
    </rdf:RDF>
  </metadata>
  <g
     transform="translate(-103.48399,-147.28233)"
     id="layer1"
     inkscape:groupmode="layer"
     inkscape:label="Layer 1">
    <g
       id="g1139">
      <g
         id="g1121"
         transform="translate(-4.7854895,-0.040245)">
        <g
           transform="matrix(0.26458333,0,0,0.26458333,109.13727,148.23188)"
           id="g97"
           style="fill:none;stroke:#f6f6f6;stroke-opacity:1">
          <path
             style="stroke:#f6f6f6;stroke-opacity:1"
             d="M 5.99997,2.14077 C 5.04336,2.14263 4.10876,2.42799 3.31426,2.9608 2.51977,3.49362 1.90103,4.24997 1.53624,5.1343 1.17144,6.01863 1.07695,6.99124 1.26472,7.92925 1.45248,8.86726 1.91406,9.72856 2.59115,10.4043 3.26823,11.0801 4.13043,11.54 5.06879,11.726 6.00716,11.9119 6.97959,11.8155 7.86321,11.449 8.74683,11.0825 9.50199,10.4623 10.0333,9.66681 10.5645,8.87129 10.8481,7.93614 10.8481,6.97952 10.8452,5.69547 10.3332,4.46498 9.42435,3.5579 8.51551,2.65081 7.28402,2.14118 5.99997,2.14077 Z m 0,7.79688 C 5.4155,9.93635 4.84452,9.76185 4.35918,9.43619 3.87384,9.11053 3.49592,8.64833 3.27315,8.10797 3.05038,7.56762 2.99276,6.97336 3.10758,6.40028 3.2224,5.82719 3.5045,5.301 3.91825,4.88817 4.33199,4.47534 4.85881,4.19441 5.43215,4.08086 6.00548,3.96731 6.59961,4.02624 7.13947,4.25021 7.67933,4.47418 8.14069,4.85313 8.46528,5.33919 8.78986,5.82525 8.96309,6.39661 8.96309,6.98108 8.96218,7.76607 8.6495,8.51855 8.09381,9.073 7.53813,9.62746 6.78496,9.93848 5.99997,9.93765 Z M 12.0197,2.17702 c 5e-4,0.22997 -0.0673,0.45491 -0.1947,0.64636 -0.1274,0.19145 -0.3087,0.3408 -0.521,0.42914 C 11.0916,3.34087 10.8579,3.36424 10.6323,3.31968 10.4067,3.27512 10.1994,3.16463 10.0366,3.0022 9.87378,2.83976 9.76285,2.63269 9.7178,2.40718 9.67275,2.18166 9.69562,1.94786 9.78351,1.73535 9.8714,1.52284 10.0204,1.34119 10.2115,1.21337 c 0.1912,-0.12781 0.416,-0.19603 0.646,-0.19603 0.1524,-2.1e-4 0.3035,0.02963 0.4444,0.0878 0.1409,0.05818 0.269,0.14355 0.3769,0.25125 0.108,0.1077 0.1936,0.2356 0.2521,0.37641 0.0585,0.1408 0.0886,0.29175 0.0888,0.44422 z"
             stroke="#ff0e0e"
             stroke-miterlimit="10"
             id="path86" />
        </g>
        <g
           transform="matrix(0.26458333,0,0,0.26458333,108.23641,147.2895)"
           id="g156"
           style="fill:none;stroke:#f6f6f6;stroke-opacity:1">
          <path
             style="stroke:#f6f6f6;stroke-opacity:1"
             d="M 13.7881,0.625 H 6.20938 C 4.73033,0.62541 3.31181,1.21239 2.26494,2.25721 1.21807,3.30203 0.62831,4.71939 0.625,6.19844 v 7.56246 c 0.003392,1.479 0.59319,2.8963 1.64005,3.9411 1.04686,1.0447 2.46533,1.6317 3.94433,1.6321 h 7.57872 c 1.4795,2e-4 2.8987,-0.5865 3.9461,-1.6314 1.0474,-1.0449 1.6375,-2.4626 1.6408,-3.9421 V 6.19813 C 19.3716,4.7187 18.7815,3.30104 17.7341,2.25622 16.6867,1.2114 15.2676,0.624748 13.7881,0.625 Z"
             stroke="#ff0e0e"
             stroke-miterlimit="10"
             id="path145" />
        </g>
      </g>
      <g
         id="g1127"
         transform="translate(4.7854895,6.3902453)">
        <g
           transform="matrix(0.26458333,0,0,0.26458333,99.566297,148.15139)"
           id="g1056"
           style="fill:none">
          <path
             d="M 5.99997,2.14077 C 5.04336,2.14263 4.10876,2.42799 3.31426,2.9608 2.51977,3.49362 1.90103,4.24997 1.53624,5.1343 1.17144,6.01863 1.07695,6.99124 1.26472,7.92925 1.45248,8.86726 1.91406,9.72856 2.59115,10.4043 3.26823,11.0801 4.13043,11.54 5.06879,11.726 6.00716,11.9119 6.97959,11.8155 7.86321,11.449 8.74683,11.0825 9.50199,10.4623 10.0333,9.66681 10.5645,8.87129 10.8481,7.93614 10.8481,6.97952 10.8452,5.69547 10.3332,4.46498 9.42435,3.5579 8.51551,2.65081 7.28402,2.14118 5.99997,2.14077 Z m 0,7.79688 C 5.4155,9.93635 4.84452,9.76185 4.35918,9.43619 3.87384,9.11053 3.49592,8.64833 3.27315,8.10797 3.05038,7.56762 2.99276,6.97336 3.10758,6.40028 3.2224,5.82719 3.5045,5.301 3.91825,4.88817 4.33199,4.47534 4.85881,4.19441 5.43215,4.08086 6.00548,3.96731 6.59961,4.02624 7.13947,4.25021 7.67933,4.47418 8.14069,4.85313 8.46528,5.33919 8.78986,5.82525 8.96309,6.39661 8.96309,6.98108 8.96218,7.76607 8.6495,8.51855 8.09381,9.073 7.53813,9.62746 6.78496,9.93848 5.99997,9.93765 Z M 12.0197,2.17702 c 5e-4,0.22997 -0.0673,0.45491 -0.1947,0.64636 -0.1274,0.19145 -0.3087,0.3408 -0.521,0.42914 C 11.0916,3.34087 10.8579,3.36424 10.6323,3.31968 10.4067,3.27512 10.1994,3.16463 10.0366,3.0022 9.87378,2.83976 9.76285,2.63269 9.7178,2.40718 9.67275,2.18166 9.69562,1.94786 9.78351,1.73535 9.8714,1.52284 10.0204,1.34119 10.2115,1.21337 c 0.1912,-0.12781 0.416,-0.19603 0.646,-0.19603 0.1524,-2.1e-4 0.3035,0.02963 0.4444,0.0878 0.1409,0.05818 0.269,0.14355 0.3769,0.25125 0.108,0.1077 0.1936,0.2356 0.2521,0.37641 0.0585,0.1408 0.0886,0.29175 0.0888,0.44422 z"
             stroke="#ff0e0e"
             stroke-miterlimit="10"
             id="path1045" />
        </g>
        <g
           transform="matrix(0.26458333,0,0,0.26458333,98.665431,147.20901)"
           id="g1115"
           style="fill:none">
          <path
             d="M 13.7881,0.625 H 6.20938 C 4.73033,0.62541 3.31181,1.21239 2.26494,2.25721 1.21807,3.30203 0.62831,4.71939 0.625,6.19844 v 7.56246 c 0.003392,1.479 0.59319,2.8963 1.64005,3.9411 1.04686,1.0447 2.46533,1.6317 3.94433,1.6321 h 7.57872 c 1.4795,2e-4 2.8987,-0.5865 3.9461,-1.6314 1.0474,-1.0449 1.6375,-2.4626 1.6408,-3.9421 V 6.19813 C 19.3716,4.7187 18.7815,3.30104 17.7341,2.25622 16.6867,1.2114 15.2676,0.624748 13.7881,0.625 Z"
             stroke="#ff0e0e"
             stroke-miterlimit="10"
             id="path1104" />
        </g>
      </g>
    </g>
  </g>
</svg>
