<?xml version="1.0" encoding="UTF-8" standalone="no"?>
<svg
   xmlns:dc="http://purl.org/dc/elements/1.1/"
   xmlns:cc="http://creativecommons.org/ns#"
   xmlns:rdf="http://www.w3.org/1999/02/22-rdf-syntax-ns#"
   xmlns:svg="http://www.w3.org/2000/svg"
   xmlns="http://www.w3.org/2000/svg"
   xmlns:sodipodi="http://sodipodi.sourceforge.net/DTD/sodipodi-0.dtd"
   xmlns:inkscape="http://www.inkscape.org/namespaces/inkscape"
   sodipodi:docname="burger-menu.svg"
   inkscape:version="1.0 (5b275a35d9, 2020-05-03)"
   id="svg8"
   version="1.1"
   viewBox="0 0 22.325541 3.0278916"
   height="3.0278916mm"
   width="22.325541mm">
  <defs
     id="defs2" />
  <sodipodi:namedview
     inkscape:window-maximized="1"
     inkscape:window-y="27"
     inkscape:window-x="0"
     inkscape:window-height="704"
     inkscape:window-width="1366"
     fit-margin-bottom="0"
     fit-margin-right="0"
     fit-margin-left="0"
     fit-margin-top="0"
     showgrid="false"
     inkscape:document-rotation="0"
     inkscape:current-layer="layer1"
     inkscape:document-units="mm"
     inkscape:cy="45.449092"
     inkscape:cx="49.060519"
     inkscape:zoom="3.959798"
     inkscape:pageshadow="2"
     inkscape:pageopacity="0.0"
     borderopacity="1.0"
     bordercolor="#666666"
     pagecolor="#ffffff"
     id="base" />
  <metadata
     id="metadata5">
    <rdf:RDF>
      <cc:Work
         rdf:about="">
        <dc:format>image/svg+xml</dc:format>
        <dc:type
           rdf:resource="http://purl.org/dc/dcmitype/StillImage" />
        <dc:title></dc:title>
      </cc:Work>
    </rdf:RDF>
  </metadata>
  <g
     transform="translate(-94.736708,-146.59504)"
     id="layer1"
     inkscape:groupmode="layer"
     inkscape:label="Layer 1">
    <g
       transform="matrix(0.26458333,0,0,0.26458333,94.736708,145.91771)"
       id="g938"
       style="fill:none;stroke:#f6f6f6;stroke-opacity:1">
      <line
         style="stroke:#f6f6f6;stroke-opacity:1"
         x1="0"
         y1="3.5"
         x2="30"
         y2="3.5"
         stroke="#28282a"
         id="line915" />
      <line
         style="stroke:#f6f6f6;stroke-opacity:1"
         x1="0"
         y1="8.5"
         x2="22"
         y2="8.5"
         stroke="#28282a"
         id="line917" />
      <line
         style="stroke:#f6f6f6;stroke-opacity:1"
         x1="0"
         y1="13.5"
         x2="15"
         y2="13.5"
         stroke="#28282a"
         id="line919" />
      <path
         style="stroke:#f6f6f6;stroke-opacity:1"
         d="m 29.719,11.021 v 0.728 h -1.612 v 1.755 h -0.819 v -1.755 h -1.612 v -0.728 h 1.612 V 9.266 h 0.819 v 1.755 z"
         fill="#28282a"
         id="path921" />
      <path
         style="stroke:#f6f6f6;stroke-opacity:1"
         d="M 57.4055,13 V 4.838 l -3.626,6.314 h -0.574 L 49.5795,4.838 V 13 h -0.98 V 3.06 h 1.008 l 3.878,6.804 3.906,-6.804 h 0.994 V 13 Z m 6.4696,0.14 c -0.532,0 -1.022,-0.098 -1.47,-0.294 -0.4386,-0.2053 -0.8213,-0.4807 -1.148,-0.826 -0.3266,-0.3547 -0.5833,-0.7607 -0.77,-1.218 -0.1773,-0.4573 -0.266,-0.94733 -0.266,-1.47 0,-0.51333 0.0887,-0.994 0.266,-1.442 0.1867,-0.45733 0.4387,-0.854 0.756,-1.19 0.3267,-0.34533 0.714,-0.616 1.162,-0.812 0.448,-0.20533 0.9334,-0.308 1.456,-0.308 0.532,0 1.0174,0.10267 1.456,0.308 0.448,0.196 0.8307,0.46667 1.148,0.812 0.3174,0.34533 0.5647,0.742 0.742,1.19 0.1774,0.448 0.266,0.924 0.266,1.428 0,0.07467 0,0.14933 0,0.224 0,0.07467 -0.0046,0.126 -0.014,0.154 h -6.244 c 0.028,0.392 0.1167,0.756 0.266,1.092 0.1587,0.3267 0.3594,0.6113 0.602,0.854 0.2427,0.2427 0.518,0.434 0.826,0.574 0.3174,0.1307 0.6534,0.196 1.008,0.196 0.2334,0 0.4667,-0.0327 0.7,-0.098 0.2334,-0.0653 0.448,-0.154 0.644,-0.266 0.196,-0.112 0.3734,-0.2473 0.532,-0.406 0.1587,-0.168 0.28,-0.35 0.364,-0.546 l 0.826,0.224 c -0.112,0.2707 -0.2706,0.518 -0.476,0.742 -0.2053,0.2147 -0.4433,0.406 -0.714,0.574 -0.2706,0.1587 -0.5693,0.28 -0.896,0.364 -0.3266,0.0933 -0.6673,0.14 -1.022,0.14 z m 2.688,-4.172 C 66.5351,8.576 66.4418,8.22133 66.2831,7.904 66.1338,7.57733 65.9378,7.29733 65.6951,7.064 65.4618,6.83067 65.1865,6.64867 64.8691,6.518 64.5611,6.38733 64.2298,6.322 63.8751,6.322 c -0.3546,0 -0.6906,0.06533 -1.008,0.196 -0.3173,0.13067 -0.5973,0.31267 -0.84,0.546 -0.2333,0.23333 -0.4246,0.51333 -0.574,0.84 -0.14,0.32667 -0.224,0.68133 -0.252,1.064 z M 75.2139,13 h -0.952 V 8.926 c 0,-0.868 -0.1307,-1.498 -0.392,-1.89 -0.252,-0.392 -0.644,-0.588 -1.176,-0.588 -0.28,0 -0.56,0.05133 -0.84,0.154 -0.28,0.10267 -0.5413,0.24733 -0.784,0.434 -0.2333,0.18667 -0.4433,0.41067 -0.63,0.672 -0.1867,0.252 -0.322,0.52733 -0.406,0.826 V 13 h -0.952 V 5.706 h 0.868 v 1.652 c 0.2987,-0.532 0.7233,-0.96133 1.274,-1.288 0.56,-0.32667 1.1667,-0.49 1.82,-0.49 0.4013,0 0.742,0.07467 1.022,0.224 0.28,0.14933 0.504,0.35933 0.672,0.63 0.168,0.27067 0.2893,0.602 0.364,0.994 0.0747,0.392 0.112,0.826 0.112,1.302 z m 4.4521,0.14 c -0.7933,0 -1.386,-0.2613 -1.778,-0.784 C 77.5054,11.824 77.314,11.0353 77.314,9.99 V 5.706 h 0.952 v 4.116 c 0,1.652 0.5647,2.478 1.694,2.478 0.28,0 0.5554,-0.0467 0.826,-0.14 0.2707,-0.0933 0.518,-0.2287 0.742,-0.406 0.2334,-0.1773 0.4387,-0.3873 0.616,-0.63 0.1867,-0.2427 0.336,-0.518 0.448,-0.826 V 5.706 h 0.952 v 6.062 c 0,0.2613 0.112,0.392 0.336,0.392 V 13 c -0.112,0.0187 -0.2053,0.028 -0.28,0.028 -0.0653,0 -0.112,0 -0.14,0 -0.224,-0.0093 -0.406,-0.0887 -0.546,-0.238 -0.14,-0.1493 -0.21,-0.35 -0.21,-0.602 v -0.84 c -0.3173,0.5693 -0.7513,1.0127 -1.302,1.33 -0.5413,0.308 -1.12,0.462 -1.736,0.462 z"
         fill="#28282a"
         id="path923" />
    </g>
  </g>
</svg>
